<?xml version="1.0" standalone="no"?>
<!DOCTYPE svg PUBLIC "-//W3C//DTD SVG 20010904//EN"
 "http://www.w3.org/TR/2001/REC-SVG-20010904/DTD/svg10.dtd">
<svg version="1.0" xmlns="http://www.w3.org/2000/svg"
 width="260.000000pt" height="260.000000pt" viewBox="0 0 260.000000 260.000000"
 preserveAspectRatio="xMidYMid meet">
<metadata>
Created by potrace 1.14, written by Peter Selinger 2001-2017
</metadata>
<g transform="translate(0.000000,260.000000) scale(0.100000,-0.100000)"
fill="#000000" stroke="none">
<path d="M1241 2558 c-1 -21 -27 -24 -34 -5 -4 9 -6 9 -6 -1 -1 -7 -5 -10 -11
-7 -5 3 -10 1 -10 -6 0 -7 -6 -4 -14 7 -12 16 -17 17 -28 6 -11 -11 -10 -12 6
-6 13 5 17 4 12 -4 -10 -16 -36 -15 -36 1 0 6 -5 4 -11 -6 -7 -11 -18 -16 -34
-13 -14 3 -27 0 -31 -5 -3 -6 -12 -5 -22 3 -12 10 -14 10 -8 1 6 -12 -18 -19
-46 -14 -5 0 -8 -3 -8 -8 0 -5 -20 -12 -45 -15 -25 -4 -45 -12 -45 -17 0 -6
-5 -7 -10 -4 -6 4 -7 12 -3 18 4 7 0 6 -10 -2 -19 -15 -23 -26 -5 -15 7 4 8 3
4 -4 -4 -7 -15 -12 -25 -12 -9 0 -23 -6 -30 -12 -10 -9 -12 -9 -7 -1 3 6 1 15
-5 19 -7 4 -9 3 -5 -4 8 -13 -20 -42 -40 -42 -9 0 -22 -7 -31 -15 -8 -8 -18
-13 -23 -10 -4 3 -10 -2 -14 -10 -3 -8 -12 -15 -21 -15 -8 0 -15 -5 -15 -11 0
-5 -4 -7 -10 -4 -5 3 -10 1 -10 -5 0 -7 -7 -9 -16 -6 -8 3 -13 2 -10 -2 5 -9
-28 -42 -42 -42 -4 0 -13 -9 -20 -21 -10 -16 -20 -19 -40 -15 -18 4 -22 4 -13
-2 18 -13 -60 -98 -79 -87 -9 6 -11 4 -5 -4 4 -8 -1 -21 -14 -32 -12 -11 -21
-24 -21 -29 0 -6 -5 -10 -11 -10 -5 0 -7 5 -3 12 4 7 3 8 -4 4 -6 -4 -9 -13
-6 -21 4 -8 -1 -18 -10 -21 -9 -3 -14 -9 -11 -13 2 -4 -7 -19 -21 -34 -14 -15
-22 -27 -18 -27 4 0 -2 -9 -14 -20 -12 -12 -22 -30 -22 -40 0 -22 -15 -27 -24
-7 -3 6 -3 2 0 -10 4 -19 2 -22 -13 -17 -13 4 -14 3 -5 -3 18 -13 -2 -68 -20
-57 -9 5 -9 2 1 -9 9 -11 10 -17 2 -17 -6 0 -11 -4 -11 -9 0 -5 -5 -22 -12
-38 -6 -15 -11 -31 -10 -35 1 -5 -2 -8 -7 -8 -5 0 -8 -8 -7 -17 0 -10 -4 -17
-11 -16 -6 1 -14 -4 -17 -12 -3 -9 0 -12 10 -8 7 3 14 0 14 -6 0 -6 -4 -11
-10 -11 -5 0 -7 -6 -4 -14 3 -8 -5 -22 -18 -31 -17 -13 -18 -16 -4 -11 14 5
17 2 12 -10 -3 -8 -6 -22 -6 -31 0 -10 -6 -13 -18 -9 -14 5 -14 4 2 -9 20 -15
20 -15 0 -15 -18 -1 -18 -1 -1 -11 9 -6 15 -15 12 -20 -11 -17 -17 -62 -17
-134 -1 -38 -6 -76 -12 -84 -8 -11 -8 -13 2 -7 7 4 12 1 12 -9 0 -9 -4 -14
-10 -10 -5 3 -3 -7 5 -21 10 -20 11 -33 3 -47 -6 -12 -6 -17 0 -13 5 3 12 -5
14 -19 3 -15 1 -25 -6 -25 -7 0 -8 -3 -1 -8 17 -12 34 -91 21 -96 -7 -3 -7 -5
2 -5 6 -1 12 -7 12 -15 0 -8 9 -35 19 -59 11 -25 17 -48 13 -51 -10 -11 -11
-37 -1 -30 5 3 6 10 3 16 -4 7 -2 8 5 4 7 -5 9 -16 5 -28 -4 -13 -2 -18 4 -14
6 3 15 -8 21 -24 8 -24 7 -29 -2 -25 -7 3 -2 -2 10 -11 13 -9 23 -21 23 -27 0
-6 8 -19 18 -30 9 -11 12 -17 5 -14 -6 4 -15 3 -18 -3 -4 -6 -3 -10 2 -9 22 4
33 -3 33 -18 0 -16 -2 -16 -11 -3 -9 13 -10 13 -6 0 2 -8 10 -14 18 -13 11 2
46 -43 52 -67 1 -3 13 -15 26 -28 21 -20 23 -25 11 -34 -13 -8 -12 -9 2 -5 17
6 42 -15 31 -26 -3 -4 -1 -7 7 -7 10 0 10 -3 -1 -17 -11 -15 -11 -16 1 -6 19
18 33 16 26 -3 -4 -9 -2 -13 5 -8 6 3 29 -12 50 -35 21 -22 39 -38 39 -35 0 3
7 -1 15 -10 8 -8 15 -20 15 -26 0 -6 4 -9 8 -6 16 9 51 -24 46 -42 -5 -15 -4
-15 6 -2 9 11 13 12 17 3 2 -7 13 -13 24 -13 11 0 19 -7 19 -16 0 -8 4 -13 9
-9 5 3 16 -2 25 -10 8 -9 18 -16 21 -15 19 1 25 -1 25 -10 0 -5 -6 -7 -14 -4
-8 3 -16 1 -20 -4 -6 -10 24 -9 42 2 11 7 16 1 14 -15 -1 -4 9 -4 21 -1 20 5
21 4 7 -13 -14 -17 -14 -17 6 -7 11 6 26 7 33 3 10 -6 10 -10 1 -13 -6 -2 7
-3 29 -3 28 0 45 -6 56 -20 9 -11 13 -14 9 -6 -5 10 -3 12 7 5 14 -9 34 -14
57 -16 7 -1 11 -7 8 -15 -4 -10 -1 -10 15 0 13 8 22 9 27 2 4 -5 21 -11 37
-12 101 -6 123 -9 119 -14 -2 -4 3 -10 12 -13 9 -3 12 -2 9 4 -4 7 27 10 92
10 105 0 176 6 233 21 23 6 36 5 39 -2 2 -6 8 -4 15 4 10 13 79 37 114 39 6 1
12 5 12 10 0 4 3 7 8 6 8 -1 51 15 94 36 17 9 30 10 36 4 6 -6 12 -5 17 3 5 8
4 10 -3 5 -7 -4 -12 -3 -12 2 0 10 70 47 88 45 6 0 12 5 12 13 0 7 8 11 19 9
15 -3 18 1 14 12 -4 11 -2 14 5 9 6 -3 16 3 22 14 10 18 14 19 28 8 13 -10 14
-11 8 0 -5 8 2 22 19 38 29 27 41 30 49 12 3 -7 3 -2 0 11 -4 16 -3 21 5 17 6
-4 11 -2 11 4 0 6 12 23 26 38 15 15 23 21 19 14 -6 -11 -3 -12 14 -3 11 7 21
14 21 17 0 3 -4 2 -10 -1 -19 -12 -10 14 12 35 12 11 29 18 37 15 12 -5 12 -3
0 12 -12 15 -12 16 3 10 13 -4 15 -2 11 10 -5 12 -3 14 7 8 9 -6 11 -4 5 5 -5
8 -2 18 9 26 10 7 17 16 16 20 -1 5 3 10 9 12 7 2 9 -4 5 -15 -5 -13 -2 -12
11 5 9 13 14 26 11 29 -3 4 -6 1 -6 -6 0 -7 -5 -9 -10 -6 -8 5 -7 11 1 21 6 7
15 12 19 9 5 -3 6 4 3 15 -3 11 0 21 6 21 26 3 30 4 38 13 4 5 3 6 -4 2 -23
-13 -23 13 -1 35 13 12 17 19 11 15 -17 -10 -16 2 1 19 7 8 17 11 22 7 5 -4 2
2 -6 12 -13 17 -13 19 0 14 10 -4 15 1 16 16 3 30 9 54 17 62 4 4 7 16 7 26 0
11 4 17 9 14 4 -3 6 6 3 19 -2 15 0 25 7 25 7 0 9 -5 5 -12 -4 -7 -3 -8 5 -4
7 5 8 13 4 19 -14 20 -9 45 12 62 17 14 17 16 3 11 -10 -3 -18 -1 -18 4 0 6 8
10 18 10 10 0 13 3 7 8 -9 6 -12 28 -6 42 4 9 12 104 11 134 0 16 5 33 12 38
10 6 10 8 1 8 -7 0 -13 7 -13 16 0 8 4 13 8 10 5 -3 9 1 9 9 0 8 -4 12 -9 9
-4 -3 -7 5 -7 18 1 13 -1 40 -4 61 -4 26 -3 36 5 31 7 -5 8 -2 2 7 -4 8 -9 19
-10 24 -1 6 -6 29 -12 52 -7 29 -6 45 2 53 8 8 7 11 -3 8 -7 -2 -16 3 -19 11
-2 8 0 11 5 8 5 -3 10 0 10 8 0 8 -3 12 -7 10 -8 -5 -42 76 -35 83 3 3 5 0 5
-6 0 -7 6 -12 13 -12 6 1 2 9 -11 19 -12 11 -22 26 -22 35 0 8 -5 18 -10 21
-8 5 -7 12 2 23 11 13 11 14 -1 8 -10 -7 -12 -3 -6 15 4 17 3 20 -3 10 -8 -11
-12 -9 -22 9 -6 12 -9 24 -7 27 3 2 -3 13 -14 24 -10 10 -19 26 -19 34 0 8 -4
15 -9 15 -5 0 -15 16 -22 35 -7 19 -15 32 -18 30 -2 -3 -11 5 -19 16 -12 18
-13 23 -1 31 11 8 10 9 -4 4 -12 -4 -21 1 -27 17 -5 12 -9 19 -9 15 -1 -3 -31
26 -68 64 -38 39 -67 74 -66 79 2 5 -3 9 -10 9 -7 0 -23 9 -35 20 -12 11 -26
20 -32 20 -6 0 -9 4 -6 9 3 5 -8 14 -24 20 -17 5 -30 15 -30 20 0 6 -7 11 -15
11 -8 0 -23 8 -33 18 -10 9 -25 18 -33 20 -8 2 -15 8 -17 13 -2 5 -9 9 -16 9
-7 0 -31 9 -54 20 -63 31 -96 43 -106 41 -4 -1 -13 2 -20 7 -6 5 -37 15 -68
22 -32 7 -58 18 -58 24 0 6 -5 4 -10 -4 -8 -12 -10 -12 -11 5 0 11 -3 14 -6 7
-2 -6 -8 -10 -12 -7 -11 6 -136 16 -203 16 -46 -1 -57 2 -61 16 -4 17 -5 17
-6 1z"/>
<path d="M1290 2560 c0 -5 5 -10 11 -10 5 0 7 5 4 10 -3 6 -8 10 -11 10 -2 0
-4 -4 -4 -10z"/>
<path d="M1415 2560 c-3 -5 -1 -10 4 -10 6 0 11 5 11 10 0 6 -2 10 -4 10 -3 0
-8 -4 -11 -10z"/>
<path d="M1075 2540 c3 -5 8 -10 11 -10 2 0 4 5 4 10 0 6 -5 10 -11 10 -5 0
-7 -4 -4 -10z"/>
<path d="M886 2498 c3 -5 10 -6 15 -3 13 9 11 12 -6 12 -8 0 -12 -4 -9 -9z"/>
<path d="M1740 2476 c0 -2 7 -7 16 -10 8 -3 12 -2 9 4 -6 10 -25 14 -25 6z"/>
<path d="M1780 2456 c0 -2 7 -7 16 -10 8 -3 12 -2 9 4 -6 10 -25 14 -25 6z"/>
<path d="M1820 2446 c0 -2 8 -10 18 -17 15 -13 16 -12 3 4 -13 16 -21 21 -21
13z"/>
<path d="M502 2274 c-7 -8 -8 -14 -3 -14 10 0 25 19 20 25 -2 1 -10 -3 -17
-11z"/>
<path d="M2142 2204 c10 -10 20 -15 24 -12 3 4 -5 12 -18 18 -22 12 -22 12 -6
-6z"/>
<path d="M2170 2174 c0 -2 9 -8 20 -14 11 -6 20 -7 20 -2 0 6 -9 12 -20 15
-11 3 -20 3 -20 1z"/>
<path d="M2215 2141 c-3 -5 -2 -12 3 -15 5 -3 9 1 9 9 0 17 -3 19 -12 6z"/>
<path d="M2370 1920 c0 -5 5 -10 11 -10 5 0 7 5 4 10 -3 6 -8 10 -11 10 -2 0
-4 -4 -4 -10z"/>
<path d="M2510 1520 c0 -5 5 -10 11 -10 5 0 7 5 4 10 -3 6 -8 10 -11 10 -2 0
-4 -4 -4 -10z"/>
<path d="M40 1351 c0 -6 4 -13 10 -16 6 -3 7 1 4 9 -7 18 -14 21 -14 7z"/>
<path d="M2525 1280 c3 -5 8 -10 11 -10 2 0 4 5 4 10 0 6 -5 10 -11 10 -5 0
-7 -4 -4 -10z"/>
<path d="M2510 1171 c0 -6 4 -13 10 -16 6 -3 7 1 4 9 -7 18 -14 21 -14 7z"/>
<path d="M55 1140 c3 -5 8 -10 11 -10 2 0 4 5 4 10 0 6 -5 10 -11 10 -5 0 -7
-4 -4 -10z"/>
<path d="M2510 1120 c0 -5 5 -10 11 -10 5 0 7 5 4 10 -3 6 -8 10 -11 10 -2 0
-4 -4 -4 -10z"/>
<path d="M69 1058 c7 -9 9 -23 5 -30 -6 -10 -4 -11 7 0 11 10 10 15 -6 30 -17
15 -18 15 -6 0z"/>
<path d="M2455 901 c-3 -5 -2 -12 3 -15 5 -3 9 1 9 9 0 17 -3 19 -12 6z"/>
<path d="M273 595 c0 -8 4 -12 9 -9 5 3 6 10 3 15 -9 13 -12 11 -12 -6z"/>
<path d="M455 400 c3 -5 8 -10 11 -10 2 0 4 5 4 10 0 6 -5 10 -11 10 -5 0 -7
-4 -4 -10z"/>
<path d="M845 160 c-3 -6 1 -7 9 -4 18 7 21 14 7 14 -6 0 -13 -4 -16 -10z"/>
<path d="M1748 163 c7 -3 16 -2 19 1 4 3 -2 6 -13 5 -11 0 -14 -3 -6 -6z"/>
<path d="M1135 90 c3 -4 14 -10 25 -13 11 -3 18 -2 15 3 -3 4 -14 10 -25 13
-11 3 -18 2 -15 -3z"/>
<path d="M1255 80 c3 -5 8 -10 11 -10 2 0 4 5 4 10 0 6 -5 10 -11 10 -5 0 -7
-4 -4 -10z"/>
<path d="M1286 82 c-2 -4 4 -8 14 -8 10 0 16 4 14 8 -3 4 -9 8 -14 8 -5 0 -11
-4 -14 -8z"/>
</g>
</svg>
